<svg id="Layer_1" data-name="Layer 1" xmlns="http://www.w3.org/2000/svg" viewBox="0 0 141.93 289.53"><defs><style>.cls-1{fill:#fff;}</style></defs><title>Untitled-1</title><path class="cls-1" d="M68.52,234.31c0,3.31-.06,6.62,0,9.93,0,1.47.34,3.14,2.18,3.25s1.87-1.6,2.08-2.9A60.48,60.48,0,0,0,73,230.05c-.83-9.73.1-19.41.21-29.12a5.37,5.37,0,0,1,3.54-4.67c4.78-1.67,8.72-4.7,13-7.09,9.12-5,18.27-10.08,27-15.7,6.08-3.89,13.08-6.21,18.54-11.14.62-.55,1.8-.18,2.59.23,1.11.57,1,1.65.91,2.73-.48,4.68-2.24,9-3.73,13.4a150,150,0,0,1-19.79,37.91,197.38,197.38,0,0,1-29.12,32.61c-3.14,2.86-6.43,5.5-9.7,8.18a7.66,7.66,0,0,0-3,6.75c.15,3.4,0,6.81.4,10.21.53,4.13-.4,8.25-.44,12.38,0,1.64-.9,2.91-2.64,2.8-1.55-.11-3-.74-3.35-2.64a19.43,19.43,0,0,1-.41-5.22c.74-6.36.06-12.75.36-19.12a4.69,4.69,0,0,0-1.93-4.26,226.09,226.09,0,0,1-24.32-22.9,185.57,185.57,0,0,1-23-31c-2.19-3.62-3.53-7.64-5.92-11.14-.64-.94-1.39-2.38-.68-3.37.95-1.33,2.52-.66,3.68,0,6.36,3.38,12.41,7.27,18.72,10.75,10,5.47,19.53,11.59,29.49,17,3.74,2,5.24,4.58,5,8.63-.15,2.68,0,5.37,0,8.06Z" transform="translate(0.21)"/><path class="cls-1" d="M68,137.18c.86,17.36.43,34.73.5,52.09,0,3.27-1.29,4.11-4.11,2.48-7.72-4.46-15.37-9.06-23.09-13.53Q23,167.65,4.68,157.2A8.33,8.33,0,0,1,0,149.8,137.85,137.85,0,0,1,6.26,99.64c.28-.89.57-1.77.91-2.64.85-2.15,2.14-2.78,4.31-1.48Q21,101.24,30.7,106.75c10.79,6.18,21.57,12.37,32.44,18.39,3.41,1.89,5.56,4.15,4.91,8.32A24.28,24.28,0,0,0,68,137.18Z" transform="translate(0.21)"/><path class="cls-1" d="M115.6,82.77c-.46,6-.95,12.51-1.48,19-.06.73-1.2,1.42-.19,2.17s1.75-.07,2.54-.52c3.84-2.2,7.7-4.38,11.51-6.64,4.51-2.67,5.72-2.21,7.34,2.67,1.53,4.62,2.38,9.4,3.58,14.1a4.73,4.73,0,0,1-2.65,5.91c-2.49,1.22-4.73,2.82-7.14,4.14-9.4,5.15-18.62,10.61-27.89,16-8.21,4.77-16.39,9.6-24.6,14.38-1.7,1-4.74-1.43-4.45-3.72,1.26-9.77.32-19.58.54-29.37.28-12.7.35-25.41.52-38.12a7.16,7.16,0,0,1,6.42-7.24,5.84,5.84,0,0,0,2.24-1c8.32-5.69,17.44-10,26-15.25,3-1.83,4.74-1,5.48,2.44C114.83,68.51,115.08,75.43,115.6,82.77Z" transform="translate(0.21)"/><path class="cls-1" d="M68.46,67.58v48c0,.83.06,1.66,0,2.48-.27,3.57-1.73,4.26-4.81,2.5q-15-8.56-30.11-17c-4.16-2.33-6.73-5.15-7.11-10.55C25.6,81.17,26,69.55,29,58.21c1.07-4.12,1-8.81,4.25-12.36,1.31-1.46,2.21-1.74,3.88-.78q14.05,8.15,28.2,16.16C67.83,62.67,68.43,64.92,68.46,67.58Z" transform="translate(0.21)"/><path class="cls-1" d="M141.59,141.1c0,2.79-.21,5.6,0,8.37.43,4.53-2.28,7.14-5.78,8.45-4.69,1.76-8.58,4.76-12.77,7.24-8.92,5.27-18.11,10.07-27,15.45-6.23,3.79-12.72,7.1-19,10.78-2.73,1.6-3.9,1-3.9-2.12,0-8.56-1.12-17.12,0-25.7a5.22,5.22,0,0,1,2.53-4.25c8.33-5.36,17.23-9.68,25.74-14.7s17-10.15,25.51-15.15c3.28-1.91,6.67-3.64,10.08-5.31,2.52-1.24,3.71-.35,4.18,2.49C142,131.45,141.64,136.28,141.59,141.1Z" transform="translate(0.21)"/><path class="cls-1" d="M72.73,49c0-13.73,0-27.45,0-41.17a35.51,35.51,0,0,1,.45-5.55c.4-2.59,1.47-2.93,3.49-1.15A114,114,0,0,1,93.82,20.18a128,128,0,0,1,15,26.63c2,4.85,1.73,5.89-2.81,8.57C96.49,61,86.87,66.52,77.25,72c-2.41,1.39-3.82.71-4.18-2.31-.78-6.37-.19-12.8-.35-19.2,0-.52,0-1,0-1.55Z" transform="translate(0.21)"/><path class="cls-1" d="M68.46,27.86c.43,7.08-.65,15.76.48,24.42a4,4,0,0,1-1.51,3.87c-1.33.88-2.52,0-3.7-.71q-12.06-7-24.14-13.9c-2.57-1.47-3.44-3.64-1.87-6.16C42.3,28,46.84,20.66,52.37,13.93,55.83,9.71,59.75,6,63.55,2.18c1-1,2.19-2.29,3.74-1.72,1.76.65,1.13,2.48,1.14,3.83C68.49,11.62,68.46,19,68.46,27.86Z" transform="translate(0.21)"/><path class="cls-1" d="M68.41,205.47c0,2.43.11,4.19,0,5.94-.17,2.09-1.28,3.1-3.35,2-3.54-1.89-7-3.87-10.52-5.88-9.89-5.7-19.63-11.66-29.68-17.06-5.12-2.76-9.83-6.19-15.08-8.69A7.16,7.16,0,0,1,6,177.44c-1.27-3.93-2.43-7.89-3.63-11.84a2.76,2.76,0,0,1,.78-2.84c.79-.78,1.79-.36,2.6.08,3.25,1.79,6.48,3.63,9.69,5.49,4.61,2.66,9.21,5.36,13.81,8q13.61,7.94,27.23,15.86a42,42,0,0,0,5.43,2.94C67,197.16,69.79,200.38,68.41,205.47Z" transform="translate(0.21)"/></svg>